<svg id="Layer_2" data-name="Layer 2" xmlns="http://www.w3.org/2000/svg" viewBox="0 0 870.19 870.19"><defs><style>.cls-1{fill:#fff;}.cls-2{fill:none;}</style></defs><title>instagram</title><path class="cls-1" d="M743.29,256H535.74A151.74,151.74,0,0,0,384,407.74V615.29A151.74,151.74,0,0,0,535.74,767H743.29A151.73,151.73,0,0,0,895,615.29V407.74A151.74,151.74,0,0,0,743.29,256ZM850.55,621.45A100.34,100.34,0,0,1,750.21,721.79H531.15A100.34,100.34,0,0,1,430.81,621.45V402.38A100.34,100.34,0,0,1,531.15,302H750.21A100.34,100.34,0,0,1,850.55,402.38Z" transform="translate(-204.42 -76.82)"/><path class="cls-1" d="M689.62,389.45a131.88,131.88,0,1,0,73.53,171.4A131.88,131.88,0,0,0,689.62,389.45ZM722.38,544.1a87.81,87.81,0,1,1-49-114.12A87.81,87.81,0,0,1,722.38,544.1Z" transform="translate(-204.42 -76.82)"/><circle class="cls-1" cx="572.6" cy="297.99" r="29.87"/><circle class="cls-2" cx="435.09" cy="435.09" r="435.09"/></svg>