<svg id="Layer_2" data-name="Layer 2" xmlns="http://www.w3.org/2000/svg" viewBox="0 0 870.19 870.19"><defs><style>.cls-1{fill:#fff;}.cls-2{fill:none;}</style></defs><title>placeholder</title><circle class="cls-1" cx="572.6" cy="297.99" r="29.87"/><circle class="cls-2" cx="435.09" cy="435.09" r="435.09"/><path class="cls-1" d="M636.11,218.34c-139.92,0-225.7,126.68-218.56,228.76,3.63,51.8,17.12,111.67,83.75,217.54,91.91,146,137.93,193.53,137.93,193.53S674.92,831.1,776,663.62c64-105.93,80.79-165.54,84.77-202.22C872,357.74,797.47,218.34,636.11,218.34Zm3.12,314.89a94.11,94.11,0,1,1,94.11-94.1A94.11,94.11,0,0,1,639.23,533.23Z" transform="translate(-204.42 -76.82)"/></svg>