<svg id="Layer_2" data-name="Layer 2" xmlns="http://www.w3.org/2000/svg" viewBox="0 0 870.19 870.19"><defs><style>.cls-1{fill:none;}.cls-2{fill:#fff;}</style></defs><title>rapi</title><circle class="cls-1" cx="435.09" cy="435.09" r="435.09"/><path class="cls-2" d="M968.89,451.2a163.61,163.61,0,0,1-28,66.19C923,542.76,899.47,560.93,870,570.91c-69,23.32-156.1-9.19-182.8-70.54-26.69,61.35-113.82,93.86-182.8,70.54-29.51-10-53-28.15-70.95-53.52a163.73,163.73,0,0,1-28-66.19q3.66,3.18,7.32,6.4c29.65,25.95,55.94,27.57,87.51,4.34,14.52-10.68,27.53-23.4,42.08-34,11.26-8.21,23.17-16.37,36-21.44,22.25-8.8,44.83-5.81,65.12,6.53,13.79,8.39,26.36,18.84,39.16,28.79,1.8,1.39,3.14,2.14,4.51,2.09s2.7-.7,4.51-2.09c12.79-10,25.36-20.4,39.16-28.79,20.31-12.34,42.87-15.33,65.11-6.53,12.86,5.07,24.77,13.23,36,21.44,14.56,10.63,27.56,23.35,42.08,34,31.58,23.23,57.86,21.61,87.51-4.34Q965.22,454.39,968.89,451.2Z" transform="translate(-252.07 -54.85)"/></svg>