<svg id="Layer_2" data-name="Layer 2" xmlns="http://www.w3.org/2000/svg" viewBox="0 0 870.19 870.19"><defs><style>.cls-1{fill:none;}.cls-2{fill:#fff;}</style></defs><title>whatsapp</title><circle class="cls-1" cx="435.09" cy="435.09" r="435.09"/><path class="cls-2" d="M827.47,299c-13.21-10.31-93.33-70.71-204.26-52.67C508.82,264.89,451.08,352.41,439.58,370.85,396.51,440,398.35,507.93,399,522.45a262.26,262.26,0,0,0,34.18,117.43Q415,708.55,396.87,777.25q69.39-17.79,138.8-35.6c7.45,4.14,131.57,70.08,257.64,0,125.83-69.94,135.45-209.75,135.94-219.2C929.78,511.94,934.13,382.21,827.47,299Zm16.37,340.91c-54.74,76.09-140,87.75-150.17,89-76.17,9.16-132.3-25.59-147.33-35.58l-84.7,19.93q10.33-39.5,20.64-79A222.07,222.07,0,0,1,451,563c-3.38-14-17.34-77.89,14.23-145.9,28.69-61.82,89.49-115.16,168-126.68,85.26-12.53,172.47,27.05,219.22,101.77C902.42,472.18,893,571.51,843.84,639.88Z" transform="translate(-230.21 -74.16)"/><path class="cls-2" d="M798.29,583.18c-.09,3.66-.45,11.34-3.32,18.51-5.52,13.78-16.18,20.75-21.35,24.19-13.33,8.87-26.7,10.18-34.17,10.92a90.59,90.59,0,0,1-17.08,0c-18.56-1.69-35.81-8.39-55.52-19a303.18,303.18,0,0,1-57.41-38.9,318.94,318.94,0,0,1-49.81-54.8C546.44,505.78,538,493.85,533.28,475c-5.64-22.49-2.18-39.42-1.18-43.89,0,0,4.82-21.33,18-34.4,2.3-2.29,7-6.94,14.47-8.78a24.86,24.86,0,0,1,4.35-.7c.11,0,12.32,0,12.45,0h8.54a4.86,4.86,0,0,1,1.13.14,11,11,0,0,1,4.14,2.23,10.69,10.69,0,0,1,3.08,4.51q10.71,27.38,21.39,54.76a4.42,4.42,0,0,1,.27,1.07,23.08,23.08,0,0,1-.54,7.75,22.84,22.84,0,0,1-1.93,5.07,3.37,3.37,0,0,1-.5.73q-8.75,10.51-17.51,21a10,10,0,0,0-2.13,5.47,9.76,9.76,0,0,0,1.42,5.68A185.77,185.77,0,0,0,690.66,575a4.53,4.53,0,0,1,.72.38,9.33,9.33,0,0,0,6.68,1.33,9.2,9.2,0,0,0,5.1-3l23.75-28.51a4.12,4.12,0,0,1,1.41-1.11,13.44,13.44,0,0,1,4.49-1.21,13.58,13.58,0,0,1,7.48,1.53l55.11,26.43a4.21,4.21,0,0,1,2.4,3.27A59.56,59.56,0,0,1,798.29,583.18Z" transform="translate(-230.21 -74.16)"/></svg>